<?xml version="1.0" encoding="utf-8"?>
<!-- Generator: Adobe Illustrator 24.0.3, SVG Export Plug-In . SVG Version: 6.00 Build 0)  -->
<svg version="1.1" id="Layer_1" xmlns="http://www.w3.org/2000/svg" xmlns:xlink="http://www.w3.org/1999/xlink" x="0px" y="0px"
	 viewBox="0 0 1299 971" style="enable-background:new 0 0 1299 971;" xml:space="preserve">
<style type="text/css">
	.st0{fill:#FFFFFF;stroke:#000000;stroke-width:8;stroke-miterlimit:10;}
	.st1{fill:#FFFFFF;}
	.st2{fill:#E6E6E6;}
	.st3{fill:#71EEC3;}
	.st4{fill:#FD92F3;}
	.st5{fill:#F94D45;}
	.st6{fill:#FEC64E;}
</style>
<rect x="683.9" y="129.5" class="st0" width="602.5" height="824.5"/>
<rect x="718" y="163" class="st0" width="535" height="217"/>
<rect x="9.5" y="129" class="st0" width="602.5" height="824.5"/>
<rect x="42" y="163.1" class="st0" width="535" height="166.2"/>
<rect x="42" y="358.9" class="st0" width="535" height="166.2"/>
<rect x="42" y="554.9" class="st0" width="535" height="166.2"/>
<rect x="42" y="750.8" class="st0" width="535" height="166.2"/>
<g>
	<path class="st1" d="M84.1,69.5H72.9V12.1h15l19.4,38.2V12.1h11.2v57.4h-13.9L84.1,29.7V69.5z"/>
	<path class="st1" d="M125.7,50.7c0-11.5,8.9-19.8,20.1-19.8s20.1,8.3,20.1,19.8s-8.9,19.8-20.1,19.8S125.7,62.2,125.7,50.7z
		 M136.3,50.7c0,5.8,3.9,10.3,9.4,10.3s9.3-4.4,9.3-10.3s-3.9-10.2-9.3-10.2C140.2,40.5,136.3,44.8,136.3,50.7z"/>
	<path class="st1" d="M194.4,31c8.1,0,13.9,5.2,13.9,13.9v24.6h-10.7V47.6c0-4.8-3-6.7-6.4-6.7c-3.1,0-5.9,1.7-8,4.3v24.4h-10.7V32
		h10.4v1.5c0,1.3-0.2,3-0.2,3C185.8,32.9,190.1,31,194.4,31z"/>
	<path class="st1" d="M214.2,43h17.2v9h-17.2V43z"/>
	<path class="st1" d="M268.5,27.4c-3.5-3.4-8.1-5.9-12.1-5.9c-3.8,0-7.2,2-7.2,5.4c0,2.6,1.6,4.7,6.2,6.8l4.8,2.2
		c9.1,4.3,14.6,9,14.6,17.6s-7.3,17-19.9,17c-8.7,0-15.2-3.4-20.6-8.6l6.3-8.5c4.3,4.3,9.7,6.8,14,6.8c4.9,0,8-2.7,8-6.2
		c0-3.9-3.5-6.2-9-8.7l-4-1.9c-7.7-3.6-12.5-8.9-12.5-16.1c0-10.1,9-16.2,19.2-16.2c6.6,0,13.4,3.3,18.9,8L268.5,27.4z"/>
	<path class="st1" d="M318.6,53.9h-28c0.6,4.2,3.9,7.5,8.6,7.5c3.1,0,6.1-1.3,7.5-3.9l11.1,1.1c-3.4,8-10.4,11.8-18.8,11.8
		c-11.2,0-19.7-8.3-19.7-19.8s8.3-19.8,19.5-19.8c10.3,0,19.7,6.7,19.7,22.5L318.6,53.9L318.6,53.9z M290.3,46.7h16.8
		c-0.6-3.8-3.8-6.9-8.3-6.9C294.4,39.8,291.2,42.7,290.3,46.7z"/>
	<path class="st1" d="M374.2,47.5c0-4.6-3-6.6-6.2-6.6c-3,0-5.7,1.7-7.8,4.3v24.4h-10.7V47.5c0-4.5-2.9-6.6-6.2-6.6
		c-3,0-5.7,1.7-7.8,4.3v24.4h-10.7V32h10.4v1.5c0,1.3-0.2,3-0.2,3c2.8-3.4,7-5.4,11.2-5.4c5.6,0,9.9,2.4,12.1,6.8
		c3.1-4.3,7.4-6.8,12.6-6.8c8.1,0,13.9,5.2,13.9,13.9v24.6h-10.7V47.5H374.2z"/>
	<path class="st1" d="M414.5,44.5c0-2.7-2.1-4.4-6.2-4.4c-3.8,0-8.5,1.9-11.3,3.5l-4.2-8c0,0,7-4.6,16.1-4.6
		c8.5,0,16.3,3.9,16.3,13.9v24.7h-10.7V66c-2,3-6.2,4.5-10.5,4.5c-8,0-13.1-5.7-13.1-11.8c0-7.1,5.2-11.6,13.6-11.6h7.4
		c1.8,0,2.6-0.8,2.6-2.2L414.5,44.5L414.5,44.5z M414.5,56.1v-2.7c-0.7,0.7-1.8,0.8-3.3,0.8h-4c-3.4,0-5.3,1.5-5.3,4.1
		c0,2.5,2.1,4.4,5.3,4.4C411,62.7,414.5,60.7,414.5,56.1z"/>
	<path class="st1" d="M455.7,31c8.1,0,13.9,5.2,13.9,13.9v24.6h-10.7V47.6c0-4.8-3-6.7-6.4-6.7c-3.1,0-5.9,1.7-8,4.3v24.4h-10.7V32
		h10.4v1.5c0,1.3-0.2,3-0.2,3C447,32.9,451.3,31,455.7,31z"/>
	<path class="st1" d="M491.8,17.7V32h8.1v9h-8.1v17c0,2.4,1.9,2.7,3.5,2.7c2.7,0,4.9-0.2,4.9-0.2v9.1c0,0-5.2,0.5-8.3,0.5
		c-5.3,0-10.8-0.9-10.8-8.4V41h-5.9v-9h5.9V17.7H491.8z"/>
	<path class="st1" d="M520.2,69.5h-10.7V41h-5.2v-9h15.9V69.5z M514.4,12.1c3.9,0,6.9,3.1,6.9,6.9c0,3.9-3,6.8-6.9,6.8
		c-3.8,0-6.8-3-6.8-6.8C507.6,15.2,510.6,12.1,514.4,12.1z"/>
	<path class="st1" d="M537.7,50.7c0,5.9,3.9,10.3,9.4,10.3c3.9,0,6.9-2.2,8.3-5.7l10,3.1c-2.5,7.5-9.8,12.1-18.4,12.1
		c-11.2,0-20-8.3-20-19.8s8.9-19.8,20-19.8c8.5,0,15.9,4.8,18.4,12.2l-10,3c-1.4-3.4-4.3-5.7-8.3-5.7
		C541.5,40.5,537.7,44.8,537.7,50.7z"/>
</g>
<g>
	<path class="st1" d="M857.4,27.4c-3.5-3.4-8.1-5.9-12.1-5.9c-3.8,0-7.2,2-7.2,5.4c0,2.6,1.6,4.7,6.2,6.8l4.8,2.2
		c9.1,4.3,14.6,9,14.6,17.6s-7.3,17-19.9,17c-8.7,0-15.2-3.4-20.6-8.6l6.3-8.5c4.3,4.3,9.7,6.8,14,6.8c4.9,0,8-2.7,8-6.2
		c0-3.9-3.5-6.2-9-8.7l-4-1.9c-7.7-3.6-12.5-8.9-12.5-16.1c0-10.1,9-16.2,19.2-16.2c6.6,0,13.4,3.3,18.9,8L857.4,27.4z"/>
	<path class="st1" d="M907.4,53.9h-28c0.6,4.2,3.9,7.5,8.6,7.5c3.1,0,6.1-1.3,7.5-3.9l11.1,1.1c-3.4,8-10.4,11.8-18.8,11.8
		c-11.2,0-19.7-8.3-19.7-19.8s8.3-19.8,19.5-19.8c10.3,0,19.7,6.7,19.7,22.5v0.6H907.4z M879.2,46.7H896c-0.6-3.8-3.8-6.9-8.3-6.9
		S880,42.7,879.2,46.7z"/>
	<path class="st1" d="M963.1,47.5c0-4.6-3-6.6-6.2-6.6c-3,0-5.7,1.7-7.8,4.3v24.4h-10.7V47.5c0-4.5-2.9-6.6-6.2-6.6
		c-3,0-5.7,1.7-7.8,4.3v24.4h-10.7V32h10.4v1.5c0,1.3-0.2,3-0.2,3c2.8-3.4,7-5.4,11.2-5.4c5.6,0,9.9,2.4,12.1,6.8
		c3.1-4.3,7.4-6.8,12.6-6.8c8.1,0,13.9,5.2,13.9,13.9v24.6H963V47.5H963.1z"/>
	<path class="st1" d="M1003.4,44.5c0-2.7-2.1-4.4-6.2-4.4c-3.8,0-8.5,1.9-11.3,3.5l-4.2-8c0,0,7-4.6,16.1-4.6
		c8.5,0,16.3,3.9,16.3,13.9v24.7h-10.7V66c-2,3-6.2,4.5-10.5,4.5c-8,0-13.1-5.7-13.1-11.8c0-7.1,5.2-11.6,13.6-11.6h7.4
		c1.8,0,2.6-0.8,2.6-2.2L1003.4,44.5L1003.4,44.5z M1003.4,56.1v-2.7c-0.7,0.7-1.8,0.8-3.3,0.8h-4c-3.4,0-5.3,1.5-5.3,4.1
		c0,2.5,2.1,4.4,5.3,4.4C999.9,62.7,1003.4,60.7,1003.4,56.1z"/>
	<path class="st1" d="M1044.5,31c8.1,0,13.9,5.2,13.9,13.9v24.6h-10.7V47.6c0-4.8-3-6.7-6.4-6.7c-3.1,0-5.9,1.7-8,4.3v24.4h-10.7V32
		h10.4v1.5c0,1.3-0.2,3-0.2,3C1035.9,32.9,1040.2,31,1044.5,31z"/>
	<path class="st1" d="M1080.7,17.7V32h8.1v9h-8.1v17c0,2.4,1.9,2.7,3.5,2.7c2.7,0,4.9-0.2,4.9-0.2v9.1c0,0-5.2,0.5-8.3,0.5
		c-5.3,0-10.8-0.9-10.8-8.4V41h-5.9v-9h5.9V17.7H1080.7z"/>
	<path class="st1" d="M1109.1,69.5h-10.7V41h-5.2v-9h15.9L1109.1,69.5L1109.1,69.5z M1103.2,12.1c3.9,0,6.9,3.1,6.9,6.9
		c0,3.9-3,6.8-6.9,6.8c-3.8,0-6.8-3-6.8-6.8C1096.4,15.2,1099.5,12.1,1103.2,12.1z"/>
	<path class="st1" d="M1126.5,50.7c0,5.9,3.9,10.3,9.4,10.3c3.9,0,6.9-2.2,8.3-5.7l10,3.1c-2.5,7.5-9.8,12.1-18.4,12.1
		c-11.2,0-20-8.3-20-19.8s8.9-19.8,20-19.8c8.5,0,15.9,4.8,18.4,12.2l-10,3c-1.4-3.4-4.3-5.7-8.3-5.7
		C1130.4,40.5,1126.5,44.8,1126.5,50.7z"/>
</g>
<rect x="69" y="187" class="st2" width="480" height="118"/>
<rect x="69" y="777" class="st2" width="480" height="116"/>
<rect x="69" y="380" class="st2" width="340" height="33.1"/>
<rect x="69" y="470.9" class="st2" width="432" height="33.1"/>
<rect x="69" y="424.9" class="st2" width="480" height="33.1"/>
<rect x="69" y="579" class="st2" width="480" height="33.1"/>
<rect x="69" y="669.9" class="st2" width="463" height="33.1"/>
<rect x="69" y="623.9" class="st2" width="361" height="33.1"/>
<g>
	<path d="M248,249.5V248l22-12.7v7.1l-11.7,6.3l11.7,6.5v7L248,249.5z"/>
	<path d="M294.2,263c-1.2,2.1-4.2,3.8-7.7,3.8c-6.8,0-12-5.5-12-13c0-7.6,5.1-13,11.9-13c3.8,0,6.6,1.7,7.9,3.8
		c0-0.8-0.1-2.9-0.1-4.7v-11.6h7v37.8h-7L294.2,263L294.2,263z M281.8,253.8c0,3.8,2.6,6.8,6.3,6.8s6.3-3,6.3-6.8s-2.6-6.8-6.3-6.8
		S281.8,250,281.8,253.8z"/>
	<path d="M315.8,266.2h-7v-18.8h-3.5v-5.9h10.5V266.2z M312,228.4c2.5,0,4.5,2.1,4.5,4.5c0,2.5-2,4.5-4.5,4.5s-4.5-1.9-4.5-4.5
		C307.5,230.4,309.5,228.4,312,228.4z"/>
	<path d="M332.4,258.6l5.6-17.2h7.4l-8.8,24.7h-8.7l-8.4-24.7h7.6L332.4,258.6z"/>
	<path d="M348.9,255.1l11.7-6.3l-11.7-6.5v-7l22,12.7v1.6l-22,12.7V255.1z"/>
</g>
<g>
	<path d="M248,440.5V439l22-12.7v7.1l-11.7,6.3l11.7,6.5v7L248,440.5z"/>
	<path d="M294.2,454c-1.2,2.1-4.2,3.8-7.7,3.8c-6.8,0-12-5.5-12-13c0-7.6,5.1-13,11.9-13c3.8,0,6.6,1.7,7.9,3.8
		c0-0.8-0.1-2.9-0.1-4.7v-11.6h7v37.8h-7L294.2,454L294.2,454z M281.8,444.8c0,3.8,2.6,6.8,6.3,6.8s6.3-3,6.3-6.8s-2.6-6.8-6.3-6.8
		S281.8,441,281.8,444.8z"/>
	<path d="M315.8,457.2h-7v-18.8h-3.5v-5.9h10.5V457.2z M312,419.4c2.5,0,4.5,2.1,4.5,4.5c0,2.5-2,4.5-4.5,4.5s-4.5-1.9-4.5-4.5
		C307.5,421.4,309.5,419.4,312,419.4z"/>
	<path d="M332.4,449.6l5.6-17.2h7.4l-8.8,24.7h-8.7l-8.4-24.7h7.6L332.4,449.6z"/>
	<path d="M348.9,446.1l11.7-6.3l-11.7-6.5v-7l22,12.7v1.6l-22,12.7V446.1z"/>
</g>
<g>
	<path d="M248,640.5V639l22-12.7v7.1l-11.7,6.3l11.7,6.5v7L248,640.5z"/>
	<path d="M294.2,654c-1.2,2.1-4.2,3.8-7.7,3.8c-6.8,0-12-5.5-12-13c0-7.6,5.1-13,11.9-13c3.8,0,6.6,1.7,7.9,3.8
		c0-0.8-0.1-2.9-0.1-4.7v-11.6h7v37.8h-7L294.2,654L294.2,654z M281.8,644.8c0,3.8,2.6,6.8,6.3,6.8s6.3-3,6.3-6.8s-2.6-6.8-6.3-6.8
		S281.8,641,281.8,644.8z"/>
	<path d="M315.8,657.2h-7v-18.8h-3.5v-5.9h10.5V657.2z M312,619.4c2.5,0,4.5,2.1,4.5,4.5c0,2.5-2,4.5-4.5,4.5s-4.5-1.9-4.5-4.5
		C307.5,621.4,309.5,619.4,312,619.4z"/>
	<path d="M332.4,649.6l5.6-17.2h7.4l-8.8,24.7h-8.7l-8.4-24.7h7.6L332.4,649.6z"/>
	<path d="M348.9,646.1l11.7-6.3l-11.7-6.5v-7l22,12.7v1.6l-22,12.7V646.1z"/>
</g>
<g>
	<path d="M248,833.5V832l22-12.7v7.1l-11.7,6.3l11.7,6.5v7L248,833.5z"/>
	<path d="M294.2,847c-1.2,2.1-4.2,3.8-7.7,3.8c-6.8,0-12-5.5-12-13c0-7.6,5.1-13,11.9-13c3.8,0,6.6,1.7,7.9,3.8
		c0-0.8-0.1-2.9-0.1-4.7v-11.6h7v37.8h-7L294.2,847L294.2,847z M281.8,837.8c0,3.8,2.6,6.8,6.3,6.8s6.3-3,6.3-6.8s-2.6-6.8-6.3-6.8
		S281.8,834,281.8,837.8z"/>
	<path d="M315.8,850.2h-7v-18.8h-3.5v-5.9h10.5V850.2z M312,812.4c2.5,0,4.5,2.1,4.5,4.5c0,2.5-2,4.5-4.5,4.5s-4.5-1.9-4.5-4.5
		C307.5,814.4,309.5,812.4,312,812.4z"/>
	<path d="M332.4,842.6l5.6-17.2h7.4l-8.8,24.7h-8.7l-8.4-24.7h7.6L332.4,842.6z"/>
	<path d="M348.9,839.1l11.7-6.3l-11.7-6.5v-7l22,12.7v1.6l-22,12.7V839.1z"/>
</g>
<rect x="718" y="413" class="st0" width="535" height="385"/>
<g>
	<rect x="748" y="245.1" class="st0" width="478" height="107.9"/>
	<rect x="773" y="269" class="st3" width="94" height="60"/>
	<rect x="1111" y="269" class="st3" width="89" height="60"/>
	<rect x="887" y="269" class="st3" width="204" height="60"/>
	<g>
		<path d="M922.8,298.5V297l22-12.7v7.1l-11.7,6.3l11.7,6.5v7L922.8,298.5z"/>
		<path d="M965.1,289.8c5.3,0,9.2,3.4,9.2,9.2v16.2h-7v-14.4c0-3.1-2-4.4-4.2-4.4c-2.1,0-3.9,1.1-5.2,2.8v16h-7v-24.7h6.9v1
			c0,0.9-0.1,1.9-0.1,1.9C959.5,291,962.3,289.8,965.1,289.8z"/>
		<path d="M993.8,298.7c0-1.8-1.4-2.9-4.1-2.9c-2.5,0-5.6,1.2-7.5,2.3l-2.8-5.3c0,0,4.6-3,10.6-3c5.6,0,10.7,2.6,10.7,9.1v16.3h-7
			v-2.3c-1.3,1.9-4.1,3-6.9,3c-5.2,0-8.6-3.7-8.6-7.8c0-4.7,3.5-7.6,9-7.6h4.9c1.2,0,1.7-0.5,1.7-1.5L993.8,298.7L993.8,298.7z
			 M993.8,306.3v-1.8c-0.4,0.4-1.2,0.5-2.2,0.5H989c-2.2,0-3.5,1-3.5,2.7s1.3,2.9,3.5,2.9C991.5,310.7,993.8,309.4,993.8,306.3z"/>
		<path d="M1016.7,307.6l5.6-17.2h7.4l-8.8,24.7h-8.7l-8.4-24.7h7.6L1016.7,307.6z"/>
		<path d="M1033.2,304.1l11.7-6.3l-11.7-6.5v-7l22,12.7v1.6l-22,12.7V304.1z"/>
	</g>
</g>
<g>
	<path d="M879,202.5V201l22-12.7v7.1l-11.7,6.3l11.7,6.5v7L879,202.5z"/>
	<path d="M921.3,193.8c5.3,0,9.2,3.4,9.2,9.2v16.2h-7v-14.4c0-3.1-2-4.4-4.2-4.4c-2.1,0-3.9,1.1-5.2,2.8v16h-7v-37.8h6.9v14
		c0,0.9-0.1,1.9-0.1,1.9C915.7,195,918.5,193.8,921.3,193.8z"/>
	<path d="M960.6,208.8h-18.4c0.4,2.8,2.5,5,5.7,5c2.1,0,4-0.9,5-2.5l7.3,0.8c-2.2,5.3-6.9,7.8-12.4,7.8c-7.4,0-13-5.5-13-13
		c0-7.6,5.5-13,12.9-13C954.5,193.9,960.7,198.3,960.6,208.8L960.6,208.8L960.6,208.8z M942,204.1h11c-0.4-2.5-2.5-4.5-5.5-4.5
		C944.6,199.6,942.5,201.5,942,204.1z"/>
	<path d="M978.4,202.7c0-1.8-1.4-2.9-4.1-2.9c-2.5,0-5.6,1.2-7.5,2.3l-2.8-5.3c0,0,4.6-3,10.6-3c5.6,0,10.7,2.6,10.7,9.1v16.3h-7
		v-2.3c-1.3,1.9-4.1,3-6.9,3c-5.2,0-8.6-3.7-8.6-7.8c0-4.7,3.5-7.6,9-7.6h4.9c1.2,0,1.7-0.5,1.7-1.5L978.4,202.7L978.4,202.7z
		 M978.4,210.3v-1.8c-0.4,0.4-1.2,0.5-2.2,0.5h-2.6c-2.2,0-3.5,1-3.5,2.7s1.3,2.9,3.5,2.9C976.2,214.7,978.4,213.4,978.4,210.3z"/>
	<path d="M1009.4,216c-1.2,2.1-4.2,3.8-7.7,3.8c-6.8,0-12-5.5-12-13c0-7.6,5.1-13,11.9-13c3.8,0,6.6,1.7,7.9,3.8
		c0-0.8-0.1-2.9-0.1-4.7v-11.6h7v37.8h-7L1009.4,216L1009.4,216z M996.9,206.8c0,3.8,2.6,6.8,6.3,6.8s6.3-3,6.3-6.8
		s-2.6-6.8-6.3-6.8S996.9,203,996.9,206.8z"/>
	<path d="M1046.7,208.8h-18.4c0.4,2.8,2.5,5,5.7,5c2.1,0,4-0.9,5-2.5l7.3,0.8c-2.2,5.3-6.9,7.8-12.4,7.8c-7.4,0-13-5.5-13-13
		c0-7.6,5.5-13,12.9-13C1040.6,193.9,1046.8,198.3,1046.7,208.8L1046.7,208.8L1046.7,208.8z M1028.2,204.1h11.1
		c-0.4-2.5-2.5-4.5-5.5-4.5C1030.8,199.6,1028.7,201.5,1028.2,204.1z"/>
	<path d="M1066.1,201.3h-3c-3.6,0-5.2,1.7-5.2,6v11.8h-7v-24.7h6.8v3.9c1-2.6,3.3-4.3,6.4-4.3c0.6,0,1.3,0.1,1.9,0.2L1066.1,201.3
		L1066.1,201.3z"/>
	<path d="M1070,208.1l11.7-6.3l-11.7-6.5v-7l22,12.7v1.6l-22,12.7V208.1z"/>
</g>
<g>
	<path d="M886.2,458.5V457l22-12.7v7.1l-11.7,6.3l11.7,6.5v7L886.2,458.5z"/>
	<path d="M928,458.7c0-1.8-1.4-2.9-4.1-2.9c-2.5,0-5.6,1.2-7.5,2.3l-2.8-5.3c0,0,4.6-3,10.6-3c5.6,0,10.7,2.6,10.7,9.1v16.3h-7v-2.3
		c-1.3,1.9-4.1,3-6.9,3c-5.2,0-8.6-3.7-8.6-7.8c0-4.7,3.5-7.6,9-7.6h4.9c1.2,0,1.7-0.5,1.7-1.5L928,458.7L928,458.7z M928,466.3
		v-1.8c-0.4,0.4-1.2,0.5-2.2,0.5h-2.6c-2.2,0-3.5,1-3.5,2.7s1.3,2.9,3.5,2.9C925.7,470.7,928,469.4,928,466.3z"/>
	<path d="M956,457.3h-3c-3.6,0-5.2,1.7-5.2,6v11.8h-7v-24.7h6.8v3.9c1-2.6,3.3-4.3,6.4-4.3c0.6,0,1.3,0.1,1.9,0.2L956,457.3
		L956,457.3z"/>
	<path d="M968.8,441v9.4h5.3v5.9h-5.3v11.2c0,1.6,1.2,1.8,2.3,1.8c1.8,0,3.2-0.2,3.2-0.2v6c0,0-3.4,0.3-5.5,0.3
		c-3.5,0-7.1-0.6-7.1-5.6v-13.6h-3.9v-5.9h3.9V441H968.8z"/>
	<path d="M987.4,475.2h-7v-18.8H977v-5.9h10.5L987.4,475.2L987.4,475.2z M983.6,437.4c2.5,0,4.5,2.1,4.5,4.5c0,2.5-2,4.5-4.5,4.5
		s-4.5-1.9-4.5-4.5C979.1,439.4,981.1,437.4,983.6,437.4z"/>
	<path d="M998.9,462.8c0,3.9,2.5,6.8,6.2,6.8c2.6,0,4.5-1.5,5.5-3.8l6.6,2.1c-1.6,4.9-6.5,8-12.1,8c-7.3,0-13.2-5.5-13.2-13
		c0-7.6,5.8-13,13.2-13c5.6,0,10.5,3.1,12.1,8l-6.6,2c-0.9-2.3-2.9-3.8-5.5-3.8C1001.5,456,998.9,458.9,998.9,462.8z"/>
	<path d="M1028.3,475.2h-7v-37.8h7V475.2z"/>
	<path d="M1058.6,464.8h-18.4c0.4,2.8,2.5,5,5.7,5c2.1,0,4-0.9,5-2.5l7.3,0.8c-2.2,5.3-6.9,7.8-12.4,7.8c-7.4,0-13-5.5-13-13
		c0-7.6,5.5-13,12.9-13c6.8,0,13,4.4,13,14.8L1058.6,464.8L1058.6,464.8z M1040,460.1h11.1c-0.4-2.5-2.5-4.5-5.5-4.5
		C1042.7,455.6,1040.6,457.5,1040,460.1z"/>
	<path d="M1062.8,464.1l11.7-6.3l-11.7-6.5v-7l22,12.7v1.6l-22,12.7V464.1z"/>
</g>
<g>
	<rect x="751" y="646.8" class="st0" width="470" height="123.2"/>
	<rect x="773" y="671" class="st4" width="427" height="74"/>
	<g>
		<path d="M891.7,707.5V706l22-12.7v7.1l-11.7,6.3l11.7,6.5v7L891.7,707.5z"/>
		<path d="M944.2,724.2h-7v-18.8h-8.8v18.8h-7v-18.8h-3.9v-5.9h3.9v-7c0-4.9,3.2-6.5,7-6.5c1.9,0,5.1,0.3,5.1,0.3v6.4
			c0,0-2.2-0.3-2.9-0.3c-1.3,0-2.2,0.3-2.2,2.1v5h15.8L944.2,724.2L944.2,724.2z M940.4,686.4c2.5,0,4.5,2.1,4.5,4.5
			c0,2.5-2,4.5-4.5,4.5s-4.5-1.9-4.5-4.5C935.9,688.4,937.9,686.4,940.4,686.4z"/>
		<path d="M975.2,699.4V726c0,3.9-1.9,7.6-7.9,7.6h-10.7v-5.9h9c1.2,0,2.6-0.3,2.6-2.2v-4.8c-1.2,2-4.2,3.7-7.7,3.7
			c-6.7,0-11.9-5.1-11.9-12.8c0-7.8,5.1-12.9,11.8-12.9c3.7,0,6.6,1.7,7.8,3.8c0-0.3-0.1-0.8-0.1-2.1v-1.1h7.1V699.4z M962.1,718.4
			c3.7,0,6.3-2.8,6.3-6.8c0-4.1-2.5-6.8-6.3-6.8c-3.7,0-6.2,2.8-6.2,6.8C955.9,715.6,958.4,718.4,962.1,718.4z"/>
		<path d="M980.9,715.1v-15.7h7v14.4c0,3.4,2.3,4.8,4.8,4.8s4.8-1.4,4.8-4.8v-14.4h7v15.7c0,5.2-4.1,9.7-11.7,9.7
			C985.1,724.8,980.9,720.3,980.9,715.1z"/>
		<path d="M1025.2,706.3h-3c-3.6,0-5.2,1.7-5.2,6v11.8h-7v-24.7h6.8v3.9c1-2.6,3.3-4.3,6.4-4.3c0.6,0,1.3,0.1,1.9,0.2L1025.2,706.3
			L1025.2,706.3z"/>
		<path d="M1053.2,713.8h-18.4c0.4,2.8,2.5,5,5.7,5c2.1,0,4-0.9,5-2.5l7.3,0.8c-2.2,5.3-6.9,7.8-12.4,7.8c-7.4,0-13-5.5-13-13
			c0-7.6,5.5-13,12.9-13c6.8,0,13,4.4,13,14.8L1053.2,713.8L1053.2,713.8z M1034.6,709.1h11.1c-0.4-2.5-2.5-4.5-5.5-4.5
			S1035.1,706.5,1034.6,709.1z"/>
		<path d="M1057.3,713.1l11.7-6.3l-11.7-6.5v-7l22,12.7v1.6l-22,12.7V713.1z"/>
	</g>
</g>
<g>
	<rect x="718" y="827" class="st0" width="535" height="98"/>
	<rect x="739" y="846" class="st5" width="123" height="63"/>
	<rect x="1107" y="846" class="st5" width="123" height="63"/>
	<rect x="882" y="846" class="st5" width="209" height="63"/>
	<g>
		<path d="M889.2,876.5V875l22-12.7v7.1l-11.7,6.3l11.7,6.5v7L889.2,876.5z"/>
		<path d="M918.9,861.4c0-4.9,3.2-6.5,7-6.5c1.9,0,5.1,0.3,5.1,0.3v6.4c0,0-2.2-0.3-2.9-0.3c-1.4,0-2.2,0.3-2.2,2.1v5h4.8v5.9H926
			v18.8h-7v-18.8h-3.9v-5.9h3.9L918.9,861.4L918.9,861.4z"/>
		<path d="M932.9,880.8c0-7.6,5.9-13,13.2-13s13.2,5.5,13.2,13c0,7.6-5.9,13-13.2,13C938.8,893.8,932.9,888.4,932.9,880.8z
			 M939.9,880.8c0,3.8,2.5,6.8,6.2,6.8c3.6,0,6.2-2.9,6.2-6.8c0-3.9-2.5-6.8-6.2-6.8S939.9,876.9,939.9,880.8z"/>
		<path d="M962.3,880.8c0-7.6,5.9-13,13.2-13s13.2,5.5,13.2,13c0,7.6-5.9,13-13.2,13S962.3,888.4,962.3,880.8z M969.3,880.8
			c0,3.8,2.5,6.8,6.2,6.8c3.6,0,6.2-2.9,6.2-6.8c0-3.9-2.5-6.8-6.2-6.8S969.3,876.9,969.3,880.8z"/>
		<path d="M1002.1,859v9.4h5.3v5.9h-5.3v11.2c0,1.6,1.2,1.8,2.3,1.8c1.8,0,3.2-0.2,3.2-0.2v6c0,0-3.4,0.3-5.5,0.3
			c-3.5,0-7.1-0.6-7.1-5.6v-13.6h-3.9v-5.9h3.9V859H1002.1z"/>
		<path d="M1036.5,882.8h-18.4c0.4,2.8,2.5,5,5.7,5c2.1,0,4-0.9,5-2.5l7.3,0.8c-2.2,5.3-6.9,7.8-12.4,7.8c-7.4,0-13-5.5-13-13
			c0-7.6,5.5-13,12.9-13c6.8,0,13,4.4,13,14.8v0.1H1036.5z M1017.9,878.1h11.1c-0.4-2.5-2.5-4.5-5.5-4.5
			C1020.6,873.6,1018.5,875.5,1017.9,878.1z"/>
		<path d="M1055.8,875.3h-3c-3.6,0-5.2,1.7-5.2,6v11.8h-7v-24.7h6.8v3.9c1-2.6,3.3-4.3,6.4-4.3c0.6,0,1.3,0.1,1.9,0.2L1055.8,875.3
			L1055.8,875.3z"/>
		<path d="M1059.8,882.1l11.7-6.3l-11.7-6.5v-7l22,12.7v1.6l-22,12.7V882.1z"/>
	</g>
</g>
<rect x="751" y="500" class="st6" width="470" height="33"/>
<rect x="751" y="548" class="st6" width="391" height="33"/>
<rect x="751" y="596" class="st6" width="449" height="33"/>
</svg>
