<svg xmlns="http://www.w3.org/2000/svg" viewBox="0 0 422.03 511.83"><defs><style>.cls-1{fill:#1d1d1b;}.cls-2{fill:#fff;}</style></defs><g id="Layer_2" data-name="Layer 2"><g id="Layer_1-2" data-name="Layer 1"><path class="cls-1" d="M138,0H378c1.58,2.29,4.23,2.51,6.54,3.33,22.18,7.85,37.43,28.69,37.45,52.23q.15,168.38,0,336.77c0,31.08-24.53,55.22-55.67,55.59-10,.12-20,0-30,.05-7.78,0-8.13.41-8.3,8.2a56.48,56.48,0,0,1-38.42,52.63c-2,.7-4.28,1-5.57,3H44.07c-1.57-2.29-4.22-2.51-6.53-3.33C15.36,500.65.11,479.81.09,456.28Q-.06,287.89.1,119.5c0-31.08,24.52-55.22,55.67-55.59,10-.12,20,0,30,0,7.78,0,8.13-.41,8.3-8.2A56.47,56.47,0,0,1,132.47,3C134.48,2.33,136.75,2,138,0ZM291.86,287.88q0-80.44,0-160.89c0-19.65-7.34-27-26.77-27H63.22a46.6,46.6,0,0,0-11.42.92,19.11,19.11,0,0,0-14.29,13.32c-1.26,3.85-1.37,7.84-1.37,11.86q0,161.39,0,322.77a45.47,45.47,0,0,0,1,10.92c2.16,8.8,8.71,14.39,17.71,15.05,2.15.16,4.32.14,6.49.14H266.68c2,0,4,0,6-.11,9.45-.58,16.18-6.39,18.21-15.67a59.51,59.51,0,0,0,1-12.92Q291.86,367.07,291.86,287.88Zm94-63.65q0-80.47,0-160.93a64.73,64.73,0,0,0-.31-8.48c-1.42-10.73-8.73-17.38-19.47-17.88-2.16-.11-4.33-.08-6.5-.08H156.69c-2.5,0-5,0-7.49.12a19.23,19.23,0,0,0-18.09,15.28c-2.32,9.86-1,11.6,9,11.6q65.22,0,130.44,0c8.29,0,16.28,1.17,23.79,4.76,22,10.5,33.53,28,33.58,52.33q.29,139.44.09,278.88c0,2.16.07,4.33,0,6.49-.07,3.73,1.66,5.53,5.43,5.51,10.83-.06,21.67.24,32.48-.15s18.24-7.8,19.62-18.52a64.79,64.79,0,0,0,.31-8.48Q385.9,304.44,385.88,224.23Z"/><path class="cls-2" d="M291.86,287.88q0,79.2,0,158.39a59.51,59.51,0,0,1-1,12.92c-2,9.28-8.76,15.09-18.21,15.67-2,.12-4,.11-6,.11H61.33c-2.17,0-4.34,0-6.49-.14-9-.66-15.55-6.25-17.71-15.05a45.47,45.47,0,0,1-1-10.92q0-161.39,0-322.77c0-4,.11-8,1.37-11.86A19.11,19.11,0,0,1,51.8,100.91,46.6,46.6,0,0,1,63.22,100H265.08c19.43,0,26.75,7.34,26.77,27Q291.9,207.44,291.86,287.88Z"/><path class="cls-2" d="M385.88,224.23q0,80.21,0,160.43a64.79,64.79,0,0,1-.31,8.48c-1.38,10.72-8.95,18.13-19.62,18.52s-21.65.09-32.48.15c-3.77,0-5.5-1.78-5.43-5.51,0-2.16,0-4.33,0-6.49q0-139.44-.09-278.88c-.05-24.31-11.59-41.83-33.58-52.33-7.51-3.59-15.5-4.77-23.79-4.76q-65.22.1-130.44,0c-10,0-11.31-1.74-9-11.6A19.23,19.23,0,0,1,149.2,37c2.49-.15,5-.12,7.49-.12h202.9c2.17,0,4.34,0,6.5.08,10.74.5,18.05,7.15,19.47,17.88a64.73,64.73,0,0,1,.31,8.48Q385.9,143.76,385.88,224.23Z"/></g></g></svg>