<svg xmlns="http://www.w3.org/2000/svg" viewBox="0 0 135.1 135.21"><defs><style>.cls-1{fill:#fff;}</style></defs><g id="Layer_2" data-name="Layer 2"><g id="Layer_1-2" data-name="Layer 1"><path class="cls-1" d="M0,135.14C0,125.85,0,117.07.1,108.3c0-1.13,1-2.43,1.92-3.31Q41.88,65.06,81.81,25.22a4.62,4.62,0,0,1,1.2-.67L111.35,53c-2.45,2.16-5.15,4.31-7.58,6.73C79.61,83.77,55.54,108,31.29,131.94A12,12,0,0,1,24,135C16.24,135.38,8.44,135.14,0,135.14Z"/><path class="cls-1" d="M91.59,15.28c4.17-4.09,8.76-8.9,13.69-13.32,3.17-2.85,6.92-2.49,9.94.41,6,5.76,11.92,11.64,17.65,17.69,3.13,3.29,2.91,7.31-.28,10.74-4.2,4.51-8.56,8.86-12.49,12.91Z"/></g></g></svg>