<svg xmlns="http://www.w3.org/2000/svg" viewBox="0 0 189.21 285.52"><defs><style>.cls-1{fill:#fff;}</style></defs><g id="Layer_2" data-name="Layer 2"><g id="Layer_1-2" data-name="Layer 1"><path class="cls-1" d="M94.56,60q34.23,0,68.48,0c16.84,0,27.29,12.07,26.07,28.75-1.55,21.26-2.31,42.57-3.45,63.86q-2.86,53.63-5.77,107.24c-.16,3,0,6.05-.68,8.94a20.9,20.9,0,0,1-20.88,16.68q-63.74.07-127.47,0c-12,0-21-8.85-21.58-21q-2.1-42.16-4.22-84.32C3.44,148.69,1.67,117.27.12,85.84-.65,70.23,9.39,60,25.07,60ZM80.34,173.76h1.37q0,41.24,0,82.46c0,9.06,5,14.75,12.67,14.78,7.49,0,12.54-5.54,12.62-14.3.49-55.14.81-110.28,1.46-165.41.1-9-6.17-15.27-14.1-15.5s-14,6.54-14,15.52Q80.32,132.53,80.34,173.76Zm56.07.5H136c0,5.16.09,10.32,0,15.47-.46,23-1.07,45.94-1.41,68.91A12,12,0,0,0,146.83,271a12.25,12.25,0,0,0,12.39-11.8q2.07-44.14,4-88.29c1.19-26.27,2.33-52.54,3.64-78.8.43-8.74-5.58-16.11-13.81-16.37-7.82-.25-14.26,6.22-14.48,14.65Q137.47,132.32,136.41,174.26Zm-83.88.49h-.29c0-3,.06-6,0-9-.56-25-1-50-1.85-75a19.51,19.51,0,0,0-3.49-10c-3.37-4.74-10-6.07-15.36-4.09-5.68,2.11-9.26,7.44-9,14.13q2.1,55.94,4.38,111.87c.77,18.8,1.71,37.6,2.63,56.4A12.38,12.38,0,0,0,40.31,271c6,.67,12-3.06,13.44-8.82a29.93,29.93,0,0,0,.48-7.93Q53.44,214.49,52.53,174.75Z"/><path class="cls-1" d="M45.51,22.05C50.3,5.21,57.15.05,74.34,0,89,0,103.65,0,118.3,0c11.93.06,20.6,6.84,23.32,18.51.7,3,2.12,3.6,4.82,3.56,9.49-.11,19-.17,28.47,0a13.71,13.71,0,0,1,13.55,11.68c.85,5.56-2.76,11.74-8.43,13.85a18.45,18.45,0,0,1-6.33.95q-79.66.08-159.34,0C5.67,48.59,0,43.31,0,35.48s5.78-13.32,14.28-13.4C24.6,22,34.91,22.05,45.51,22.05Zm16.4-.53h64.47c-.58-7.73-5.12-12.54-12.9-12.74Q94.25,8.29,75,8.77C67.22,9,62.5,13.81,61.91,21.52Z"/></g></g></svg>