<?xml version="1.0" encoding="utf-8"?>
<!-- Generator: Adobe Illustrator 23.0.1, SVG Export Plug-In . SVG Version: 6.00 Build 0)  -->
<svg version="1.1" id="Layer_1" xmlns="http://www.w3.org/2000/svg" xmlns:xlink="http://www.w3.org/1999/xlink" x="0px" y="0px"
	 viewBox="0 0 1000 1000" style="enable-background:new 0 0 1000 1000;" xml:space="preserve">
<g>
	<path d="M134.8,389.8c2.4-2.3,8.6-0.7,13.2-0.7c15.3,0,30.7,0.1,46-0.1c2.8,0,3.9,0.6,3.7,3.6c-0.3,3.7-0.2,7.5,0,11.2
		c0.1,2.2-0.7,2.8-2.8,2.8c-5.1-0.1-10.2,0.2-15.3-0.1c-3.5-0.2-4.3,0.8-4.3,4.3c0.1,42.4,0.1,84.8,0.1,127.2
		c0,17.3-0.1,34.5,0.1,51.8c0,3.4-1.1,4.2-4.2,4c-3.6-0.3-7.2-0.3-10.8,0c-3.4,0.3-4.4-0.7-4.3-4.2c0.2-25.5,0.1-51.1,0.1-76.7
		v-12.8c0-29.8-0.1-59.7,0.1-89.5c0-3.3-0.9-4.2-4.1-4.1c-5.2,0.3-10.5,0-15.7,0.1c-1.9,0-2.9-0.5-2.6-2.5c0-0.1,0-0.3,0-0.4
		C134.2,398.9,131.9,392.7,134.8,389.8z"/>
	<path d="M212.4,579.7c0-29.4,0-58.8,0-88.3c0-32.7,0-65.5-0.1-98.2c0-3.1,0.5-4.5,4-4.2c4,0.3,8,0.2,12,0c2.6-0.2,3.3,0.7,3.2,3.3
		c-0.2,7.7,0,15.5-0.1,23.2c0,2.1,0.5,2.9,2.7,2.8c6.6-0.1,13.3-0.2,19.9,0c2.4,0.1,3-0.7,2.9-3c-0.1-7.6,0.1-15.2-0.1-22.8
		c-0.1-2.7,0.6-3.7,3.4-3.5c4.1,0.3,8.3,0.3,12.4,0c2.9-0.2,3.7,0.9,3.3,3.5c0,0.3,0,0.5,0,0.8c0,65.3,0,130.6,0.1,196
		c0,3.7-1,4.8-4.5,4.4c-3.4-0.3-6.9-0.4-10.3,0c-4,0.5-4.4-1.2-4.4-4.6c0.1-34.5,0.1-69.1,0.1-103.6c0-17.3-0.1-34.5,0.1-51.8
		c0-2.8-0.5-3.8-3.6-3.7c-6.1,0.2-12.2,0.3-18.2,0c-3.1-0.2-3.8,0.7-3.8,3.8c0.1,51.7,0,103.3,0.2,155c0,4.1-1,5.3-5,4.8
		c-4.6-0.5-10.7,1.9-13.5-0.9C210.4,590.2,212.4,584.2,212.4,579.7z"/>
	<path d="M291.4,393.3c0-3.4,0.8-4.3,4.3-4.3c18.5,0.2,37,0.2,55.5,0c3.6,0,4.5,1.1,4.2,4.4c-0.3,3-0.2,6.1,0,9.1
		c0.3,3.1-0.5,4.2-4,4.1c-12.4-0.2-24.8,0-37.3-0.2c-2.9,0-3.7,0.8-3.6,3.7c0.1,8.1,0,8.1,8.2,8.1c11,0,22.1,0.1,33.1,0
		c2.6,0,3.6,0.5,3.6,3.4c-0.1,8.6,0.1,8.6-8.6,8.6c-10.9,0-21.8,0.1-32.7,0c-2.5,0-3.5,0.4-3.5,3.3c0.1,46.5,0.1,93.1,0,139.6
		c0,2.9,1,3.3,3.6,3.3c12.6-0.1,25.1,0.1,37.7-0.1c2.9,0,3.8,0.7,3.6,3.7c-0.3,3.6-0.3,7.2,0,10.8c0.2,2.6-0.8,3.2-3.3,3.2
		c-19-0.1-38.1-0.1-57.1,0c-3.1,0-3.5-1-3.5-3.8c0.1-32.9,0-65.7,0-98.6C291.4,458.8,291.5,426.1,291.4,393.3z"/>
	<path d="M449.1,410.2c0.8-3.1,0.7-3.9-2.8-3.9c-12.4,0.2-24.9,0-37.3,0.1c-2.9,0-3.9-0.7-3.7-3.6c0.3-3.7,0.1-7.5,0-11.2
		c-0.1-2,0.6-2.6,2.6-2.6c19.5,0.1,39,0.1,58.4,0c2.7,0,2.5,1.3,2.7,3.3c1.5,13.6-3,26.1-6.4,38.9c-12.4,47.4-25,94.7-37.4,142
		c-0.2,0.9-0.3,1.9-0.5,3.1c13.6,0,27,0.1,40.3-0.1c3.3,0,4.2,0.9,4,4.1c-0.3,3.6-0.2,7.2,0,10.8c0.1,2.3-0.7,2.7-2.8,2.7
		c-19.3-0.1-38.7-0.1-58,0c-2.5,0-2.8-0.9-3-3.1c-1.4-13.9,3.4-26.7,6.7-39.7C424.3,504.1,436.7,457.2,449.1,410.2z"/>
	<path d="M484.5,393.3c0-3.5,0.9-4.3,4.3-4.2c18.7,0.2,37.3,0.2,56,0c2.9,0,3.9,0.7,3.7,3.7c-0.3,3.6-0.3,7.2,0,10.8
		c0.2,2.7-0.8,3.2-3.3,3.2c-12.7-0.1-25.4,0-38.1-0.1c-2.7,0-3.5,0.6-3.5,3.4c0.1,8.4-0.1,8.4,8.3,8.4c10.9,0,21.8,0.1,32.7-0.1
		c2.8,0,3.8,0.5,3.8,3.6c-0.1,8.4,0,8.4-8.4,8.4c-10.9,0-21.8,0.1-32.7-0.1c-2.8,0-3.7,0.5-3.7,3.5c0.1,46.4,0.1,92.8,0,139.2
		c0,2.7,0.7,3.5,3.4,3.4c12.6-0.1,25.1,0,37.7-0.1c2.8,0,3.9,0.5,3.7,3.6c-0.3,3.8-0.1,7.7,0,11.6c0.1,1.8-0.5,2.4-2.3,2.4
		c-19.7-0.1-39.5-0.1-59.3,0c-2.8,0-2.2-1.8-2.2-3.3v-99C484.6,458.7,484.6,426,484.5,393.3z"/>
	<path d="M622,437.3c-4.9-3.9-4.9-4.4,0-8.5c3.8-3.2,5-6.6,4.8-11.4c-0.4-8.1-0.2-16.3,0-24.5c0.1-3.2-0.8-3.9-3.9-3.8
		c-18.6,0.1-37.3,0.2-55.9,0c-3.4,0-4,1.1-4,4.2c0.1,32.6,0.1,65.2,0.1,97.8c0,30,0,60,0,89.9c0,4-1.8,9.4,0.7,11.4
		c2.4,2,7.6,0.7,11.6,0.7c6.8,0.1,6.8,0,6.8-6.6c0-46.8,0-93.7-0.1-140.5c0-3.1,0.6-4.3,4-4.1c5.7,0.3,11.3,0.3,17,0
		c3.3-0.2,4.4,0.6,4.3,4.2c-0.2,24.7-0.1,49.5-0.1,74.2c0,23.1,0.1,46.1-0.1,69.2c0,3.8,1.1,4.7,4.6,4.4c3.6-0.3,7.2-0.3,10.8,0
		c3.5,0.3,4.3-0.9,4.3-4.3c-0.1-47-0.1-93.9,0-140.9C626.9,443.9,625.9,440.4,622,437.3z M606.5,423.8c-2.3,2-7.9,0.4-12,0.4v0.3
		c-3.3,0-6.6-0.1-9.9,0c-2.1,0.1-3-0.5-2.9-2.7c0.2-4,0.2-8,0-12c-0.1-2.2,0.7-2.8,2.8-2.8c6.7,0.1,13.5,0.1,20.2,0
		c1.9,0,2.9,0.4,2.6,2.5c-0.1,0.7,0,1.4,0,2.1C607.1,415.8,609.2,421.4,606.5,423.8z"/>
	<path d="M705.3,392.7c0-2.9-0.8-3.6-3.7-3.6c-18.6,0.1-37.3,0.2-55.9,0c-3.4,0-4.4,0.8-4.3,4.3c0.1,32.7,0.1,65.4,0.1,98.2
		s0,65.4-0.1,98.2c0,3,0.4,4.3,4,4.2c18.8-0.2,37.5-0.2,56.3,0c2.9,0,3.6-0.7,3.6-3.6C705.2,524.4,705.2,458.5,705.3,392.7z
		 M686.1,491c0,27.1-0.1,54.1,0.1,81.2c0,3-0.5,4.1-3.8,3.9c-6.1-0.3-12.2-0.2-18.2,0c-2.9,0.1-3.7-0.8-3.7-3.7
		c0.1-17.7,0.1-35.3,0.1-53c0-36.2,0-72.4-0.1-108.5c0-3.4,0.8-4.5,4.3-4.3c5.9,0.3,11.9,0.2,17.8,0c2.9-0.1,3.6,0.8,3.6,3.7
		C686.1,437.1,686.1,464.1,686.1,491z"/>
	<path d="M720.6,394c0-4.4,1.3-5,5.2-5c18.2,0.2,36.5,0.2,54.7,0c3.4,0,4.1,1,4.1,4.2c-0.1,32.7-0.1,65.5-0.1,98.2
		c0,32.7,0,65.5,0.1,98.2c0,3.5-0.9,4.5-4.4,4.3c-3.6-0.3-7.2-0.4-10.7,0c-3.7,0.4-4.2-1.1-4.2-4.4c0.2-13.4,0.1-26.8,0.1-40.2
		c0-46.1,0-92.2,0.1-138.4c0-3.3-0.6-4.6-4.2-4.4c-5.9,0.3-11.9,0.2-17.8,0c-2.8-0.1-3.7,0.6-3.7,3.6c0.2,14,0.1,27.9,0.1,41.8
		c0,45.9,0,91.7,0.1,137.6c0,3.4-0.7,4.6-4.2,4.3c-4.1-0.3-8.3-0.2-12.4,0c-2,0.1-2.8-0.6-2.5-2.5c0.1-0.7,0-1.4,0-2.1
		C720.7,524.1,720.8,459.1,720.6,394z"/>
	<path d="M799.6,393.5c0-3.8,1.1-4.5,4.6-4.5c18.5,0.2,37,0.2,55.5,0c3.1,0,4.2,0.7,3.8,3.8c-0.5,4.5,1.9,10.5-0.9,13.1
		c-2.5,2.2-8.4,0.6-12.8,0.6c-9.2,0-18.5,0.1-27.8,0c-2.4,0-3.3,0.5-3.3,3.2c0,8.6-0.1,8.6,8.6,8.6c10.9,0,21.8,0.1,32.7,0
		c2.6,0,3.5,0.5,3.5,3.4c-0.1,8.6,0.1,8.6-8.6,8.6c-10.9,0-21.8,0.1-32.7,0c-2.6,0-3.5,0.5-3.5,3.4c0.1,46.4,0.1,92.8,0,139.2
		c0,3,0.8,3.7,3.7,3.6c12.6-0.2,25.1,0,37.7-0.1c2.6,0,3.7,0.6,3.4,3.4c-0.4,4.6,2,10.8-0.9,13.4c-2.5,2.3-8.7,0.7-13.2,0.7
		c-15.2,0-30.4-0.1-45.6,0.1c-3.6,0-4.2-1.1-4.2-4.4c0.1-32.7,0.1-65.5,0.1-98.2C799.7,458.7,799.8,426.1,799.6,393.5z"/>
	<path d="M914.4,333.9c0.1-1.7-0.6-2.9-2.1-3.7c-274.5,0-549,0-823.5-0.1c-3.1,0-3.8,0.7-3.8,3.8c0.1,111.2,0.1,222.4,0.1,333.6
		c0.9,3.2,3.5,2,5.5,2c272.6,0,545.2,0,817.9,0c5.9,0,5.9,0,5.9-5.9V336.4C914.4,335.6,914.3,334.7,914.4,333.9z M95.9,336.6
		c134.7,0.1,269.4,0.1,404,0.1c134.3,0,268.5,0,402.8-0.1c4,0,4.9,0.9,4.9,4.9c-0.1,105.7-0.1,211.4,0,317c0,3.7-0.8,4.8-4.7,4.8
		c-268.9-0.1-537.9-0.1-806.8,0c-3.9,0-4.6-1.1-4.6-4.8c0.1-105.8,0.1-211.6,0-317.4C91.5,337.4,92.3,336.6,95.9,336.6z"/>
	<path d="M85.1,667.6c0.9,1.2,2,1.9,3.5,1.7c0.8-0.1,1.7,0,2.5,0c272.2,0,544.4,0,816.6,0c6.3,0,6.3,0,6.3-6c0-109,0-217.9,0-326.9
		c0-2.2,0.4-4.5-1.7-6.1c1.4,0,3.2-0.5,2.5,2.1c-0.1,0.5,0,1.1,0,1.7c0,110.8,0,221.6,0.1,332.4c0,3.1-0.7,3.8-3.8,3.8
		C637,670,362.9,670,88.8,670C87.2,670,84.4,671.3,85.1,667.6z"/>
	<path d="M197.7,392.7c-0.3,3.7-0.2,7.5,0,11.2c0.1,2.2-0.7,2.8-2.8,2.8c-5.1-0.1-10.2,0.2-15.3-0.1c-3.5-0.2-4.3,0.8-4.3,4.3
		c0.1,42.4,0.1,84.8,0.1,127.2c0,17.3-0.1,34.5,0.1,51.8c0,3.4-1.1,4.2-4.2,4c-3.6-0.3-7.2-0.3-10.8,0c-3.4,0.3-4.4-0.7-4.3-4.2
		c0.2-25.5,0.1-51.1,0.1-76.7v-12.8c0-29.8-0.1-59.7,0.1-89.5c0-3.3-0.9-4.2-4.1-4.1c-5.2,0.3-10.5,0-15.7,0.1
		c-1.9,0-2.9-0.5-2.6-2.5c0-0.1,0-0.3,0-0.4c0.3-4.8-2-11,0.9-13.9c2.4-2.3,8.6-0.7,13.2-0.7c15.3,0,30.7,0.1,46-0.1
		C196.8,389,197.9,389.7,197.7,392.7z"/>
	<path d="M276.1,589.4c0,3.7-1,4.8-4.5,4.4c-3.4-0.3-6.9-0.4-10.3,0c-4,0.5-4.4-1.2-4.4-4.6c0.1-34.5,0.1-69.1,0.1-103.6
		c0-17.3-0.1-34.5,0.1-51.8c0-2.8-0.5-3.8-3.6-3.7c-6.1,0.2-12.2,0.3-18.2,0c-3.1-0.2-3.8,0.7-3.8,3.8c0.1,51.7,0,103.3,0.2,155
		c0,4.1-1,5.3-5,4.8c-4.6-0.5-10.7,1.9-13.5-0.9c-2.6-2.6-0.7-8.7-0.7-13.2c0-29.4,0-58.8,0-88.3c0-32.7,0-65.5-0.1-98.2
		c0-3.1,0.5-4.5,4-4.2c4,0.3,8,0.2,12,0c2.6-0.2,3.3,0.7,3.2,3.3c-0.2,7.7,0,15.5-0.1,23.2c0,2.1,0.5,2.9,2.7,2.8
		c6.6-0.1,13.3-0.2,19.9,0c2.4,0.1,3-0.7,2.9-3c-0.1-7.6,0.1-15.2-0.1-22.8c-0.1-2.7,0.6-3.7,3.4-3.5c4.1,0.3,8.3,0.3,12.4,0
		c2.9-0.2,3.7,0.9,3.3,3.5c0,0.3,0,0.5,0,0.8C276,458.7,276,524.1,276.1,589.4z"/>
	<path d="M355.3,393.4c-0.3,3-0.2,6.1,0,9.1c0.3,3.1-0.5,4.2-4,4.1c-12.4-0.2-24.8,0-37.3-0.2c-2.9,0-3.7,0.8-3.6,3.7
		c0.1,8.1,0,8.1,8.2,8.1c11,0,22.1,0.1,33.1,0c2.6,0,3.6,0.5,3.6,3.4c-0.1,8.6,0.1,8.6-8.6,8.6c-10.9,0-21.8,0.1-32.7,0
		c-2.5,0-3.5,0.4-3.5,3.3c0.1,46.5,0.1,93.1,0,139.6c0,2.9,1,3.3,3.6,3.3c12.6-0.1,25.1,0.1,37.7-0.1c2.9,0,3.8,0.7,3.6,3.7
		c-0.3,3.6-0.3,7.2,0,10.8c0.2,2.6-0.8,3.2-3.3,3.2c-19-0.1-38.1-0.1-57.1,0c-3.1,0-3.5-1-3.5-3.8c0.1-32.9,0-65.7,0-98.6
		c0-32.7,0.1-65.4-0.1-98.2c0-3.4,0.8-4.3,4.3-4.3c18.5,0.2,37,0.2,55.5,0C354.7,389,355.6,390.1,355.3,393.4z"/>
	<path d="M425.3,573.2c-0.2,0.9-0.3,1.9-0.5,3.1c13.6,0,27,0.1,40.3-0.1c3.3,0,4.2,0.9,4,4.1c-0.3,3.6-0.2,7.2,0,10.8
		c0.1,2.3-0.7,2.7-2.8,2.7c-19.3-0.1-38.7-0.1-58,0c-2.5,0-2.8-0.9-3-3.1c-1.4-13.9,3.4-26.7,6.7-39.7c12.3-47,24.6-93.9,37.1-140.8
		c0.8-3.1,0.7-3.9-2.8-3.9c-12.4,0.2-24.9,0-37.3,0.1c-2.9,0-3.9-0.7-3.7-3.6c0.3-3.7,0.1-7.5,0-11.2c-0.1-2,0.6-2.6,2.6-2.6
		c19.5,0.1,39,0.1,58.4,0c2.7,0,2.5,1.3,2.7,3.3c1.5,13.6-3,26.1-6.4,38.9C450.3,478.6,437.8,525.9,425.3,573.2z"/>
	<path d="M503.6,433.7c0.1,46.4,0.1,92.8,0,139.2c0,2.7,0.7,3.5,3.4,3.4c12.6-0.1,25.1,0,37.7-0.1c2.8,0,3.9,0.5,3.7,3.6
		c-0.3,3.8-0.1,7.7,0,11.6c0.1,1.8-0.5,2.4-2.3,2.4c-19.7-0.1-39.5-0.1-59.3,0c-2.8,0-2.2-1.8-2.2-3.3v-99c0-32.7,0.1-65.5-0.1-98.2
		c0-3.5,0.9-4.3,4.3-4.2c18.7,0.2,37.3,0.2,56,0c2.9,0,3.9,0.7,3.7,3.7c-0.3,3.6-0.3,7.2,0,10.8c0.2,2.7-0.8,3.2-3.3,3.2
		c-12.7-0.1-25.4,0-38.1-0.1c-2.7,0-3.5,0.6-3.5,3.4c0.1,8.4-0.1,8.4,8.3,8.4c10.9,0,21.8,0.1,32.7-0.1c2.8,0,3.8,0.5,3.8,3.6
		c-0.1,8.4,0,8.4-8.4,8.4c-10.9,0-21.8,0.1-32.7-0.1C504.5,430.1,503.6,430.7,503.6,433.7z"/>
	<path d="M622,437.3c-4.9-3.9-4.9-4.4,0-8.5c3.8-3.2,5-6.6,4.8-11.4c-0.4-8.1-0.2-16.3,0-24.5c0.1-3.2-0.8-3.9-3.9-3.8
		c-18.6,0.1-37.3,0.2-55.9,0c-3.4,0-4,1.1-4,4.2c0.1,32.6,0.1,65.2,0.1,97.8c0,30,0,60,0,89.9c0,4-1.8,9.4,0.7,11.4
		c2.4,2,7.6,0.7,11.6,0.7c6.8,0.1,6.8,0,6.8-6.6c0-46.8,0-93.7-0.1-140.5c0-3.1,0.6-4.3,4-4.1c5.7,0.3,11.3,0.3,17,0
		c3.3-0.2,4.4,0.6,4.3,4.2c-0.2,24.7-0.1,49.5-0.1,74.2c0,23.1,0.1,46.1-0.1,69.2c0,3.8,1.1,4.7,4.6,4.4c3.6-0.3,7.2-0.3,10.8,0
		c3.5,0.3,4.3-0.9,4.3-4.3c-0.1-47-0.1-93.9,0-140.9C626.9,443.9,625.9,440.4,622,437.3z M606.5,423.8c-2.3,2-7.9,0.4-12,0.4v0.3
		c-3.3,0-6.6-0.1-9.9,0c-2.1,0.1-3-0.5-2.9-2.7c0.2-4,0.2-8,0-12c-0.1-2.2,0.7-2.8,2.8-2.8c6.7,0.1,13.5,0.1,20.2,0
		c1.9,0,2.9,0.4,2.6,2.5c-0.1,0.7,0,1.4,0,2.1C607.1,415.8,609.2,421.4,606.5,423.8z"/>
	<path d="M705.3,392.7c0-2.9-0.8-3.6-3.7-3.6c-18.6,0.1-37.3,0.2-55.9,0c-3.4,0-4.4,0.8-4.3,4.3c0.1,32.7,0.1,65.4,0.1,98.2
		s0,65.4-0.1,98.2c0,3,0.4,4.3,4,4.2c18.8-0.2,37.5-0.2,56.3,0c2.9,0,3.6-0.7,3.6-3.6C705.2,524.4,705.2,458.5,705.3,392.7z
		 M686.1,491c0,27.1-0.1,54.1,0.1,81.2c0,3-0.5,4.1-3.8,3.9c-6.1-0.3-12.2-0.2-18.2,0c-2.9,0.1-3.7-0.8-3.7-3.7
		c0.1-17.7,0.1-35.3,0.1-53c0-36.2,0-72.4-0.1-108.5c0-3.4,0.8-4.5,4.3-4.3c5.9,0.3,11.9,0.2,17.8,0c2.9-0.1,3.6,0.8,3.6,3.7
		C686.1,437.1,686.1,464.1,686.1,491z"/>
	<path d="M784.6,589.6c0,3.5-0.9,4.5-4.4,4.3c-3.6-0.3-7.2-0.4-10.7,0c-3.7,0.4-4.2-1.1-4.2-4.4c0.2-13.4,0.1-26.8,0.1-40.2
		c0-46.1,0-92.2,0.1-138.4c0-3.3-0.6-4.6-4.2-4.4c-5.9,0.3-11.9,0.2-17.8,0c-2.8-0.1-3.7,0.6-3.7,3.6c0.2,14,0.1,27.9,0.1,41.8
		c0,45.9,0,91.7,0.1,137.6c0,3.4-0.7,4.6-4.2,4.3c-4.1-0.3-8.3-0.2-12.4,0c-2,0.1-2.8-0.6-2.5-2.5c0.1-0.7,0-1.4,0-2.1
		c0-65,0.1-130.1-0.1-195.1c0-4.4,1.3-5,5.2-5c18.2,0.2,36.5,0.2,54.7,0c3.4,0,4.1,1,4.1,4.2c-0.1,32.7-0.1,65.5-0.1,98.2
		C784.5,524.1,784.5,556.8,784.6,589.6z"/>
	<path d="M862.6,593.1c-2.5,2.3-8.7,0.7-13.2,0.7c-15.2,0-30.4-0.1-45.6,0.1c-3.6,0-4.2-1.1-4.2-4.4c0.1-32.7,0.1-65.5,0.1-98.2
		c0-32.6,0.1-65.2-0.1-97.8c0-3.8,1.1-4.5,4.6-4.5c18.5,0.2,37,0.2,55.5,0c3.1,0,4.2,0.7,3.8,3.8c-0.5,4.5,1.9,10.5-0.9,13.1
		c-2.5,2.2-8.4,0.6-12.8,0.6c-9.2,0-18.5,0.1-27.8,0c-2.4,0-3.3,0.5-3.3,3.2c0,8.6-0.1,8.6,8.6,8.6c10.9,0,21.8,0.1,32.7,0
		c2.6,0,3.5,0.5,3.5,3.4c-0.1,8.6,0.1,8.6-8.6,8.6c-10.9,0-21.8,0.1-32.7,0c-2.6,0-3.5,0.5-3.5,3.4c0.1,46.4,0.1,92.8,0,139.2
		c0,3,0.8,3.7,3.7,3.6c12.6-0.2,25.1,0,37.7-0.1c2.6,0,3.7,0.6,3.4,3.4C863.1,584.2,865.5,590.4,862.6,593.1z"/>
	<path d="M622,437.3c-4.9-3.9-4.9-4.4,0-8.5c3.8-3.2,5-6.6,4.8-11.4c-0.4-8.1-0.2-16.3,0-24.5c0.1-3.2-0.8-3.9-3.9-3.8
		c-18.6,0.1-37.3,0.2-55.9,0c-3.4,0-4,1.1-4,4.2c0.1,32.6,0.1,65.2,0.1,97.8c0,30,0,60,0,89.9c0,4-1.8,9.4,0.7,11.4
		c2.4,2,7.6,0.7,11.6,0.7c6.8,0.1,6.8,0,6.8-6.6c0-46.8,0-93.7-0.1-140.5c0-3.1,0.6-4.3,4-4.1c5.7,0.3,11.3,0.3,17,0
		c3.3-0.2,4.4,0.6,4.3,4.2c-0.2,24.7-0.1,49.5-0.1,74.2c0,23.1,0.1,46.1-0.1,69.2c0,3.8,1.1,4.7,4.6,4.4c3.6-0.3,7.2-0.3,10.8,0
		c3.5,0.3,4.3-0.9,4.3-4.3c-0.1-47-0.1-93.9,0-140.9C626.9,443.9,625.9,440.4,622,437.3z M606.5,423.8c-2.3,2-7.9,0.4-12,0.4v0.3
		c-3.3,0-6.6-0.1-9.9,0c-2.1,0.1-3-0.5-2.9-2.7c0.2-4,0.2-8,0-12c-0.1-2.2,0.7-2.8,2.8-2.8c6.7,0.1,13.5,0.1,20.2,0
		c1.9,0,2.9,0.4,2.6,2.5c-0.1,0.7,0,1.4,0,2.1C607.1,415.8,609.2,421.4,606.5,423.8z"/>
	<path d="M705.3,392.7c0-2.9-0.8-3.6-3.7-3.6c-18.6,0.1-37.3,0.2-55.9,0c-3.4,0-4.4,0.8-4.3,4.3c0.1,32.7,0.1,65.4,0.1,98.2
		s0,65.4-0.1,98.2c0,3,0.4,4.3,4,4.2c18.8-0.2,37.5-0.2,56.3,0c2.9,0,3.6-0.7,3.6-3.6C705.2,524.4,705.2,458.5,705.3,392.7z
		 M686.1,491c0,27.1-0.1,54.1,0.1,81.2c0,3-0.5,4.1-3.8,3.9c-6.1-0.3-12.2-0.2-18.2,0c-2.9,0.1-3.7-0.8-3.7-3.7
		c0.1-17.7,0.1-35.3,0.1-53c0-36.2,0-72.4-0.1-108.5c0-3.4,0.8-4.5,4.3-4.3c5.9,0.3,11.9,0.2,17.8,0c2.9-0.1,3.6,0.8,3.6,3.7
		C686.1,437.1,686.1,464.1,686.1,491z"/>
	<path d="M276.1,589.4c0,3.7-1,4.8-4.5,4.4c-3.4-0.3-6.9-0.4-10.3,0c-4,0.5-4.4-1.2-4.4-4.6c0.1-34.5,0.1-69.1,0.1-103.6
		c0-17.3-0.1-34.5,0.1-51.8c0-2.8-0.5-3.8-3.6-3.7c-6.1,0.2-12.2,0.3-18.2,0c-3.1-0.2-3.8,0.7-3.8,3.8c0.1,51.7,0,103.3,0.2,155
		c0,4.1-1,5.3-5,4.8c-4.6-0.5-10.7,1.9-13.5-0.9c-2.6-2.6-0.7-8.7-0.7-13.2c0-29.4,0-58.8,0-88.3c0-32.7,0-65.5-0.1-98.2
		c0-3.1,0.5-4.5,4-4.2c4,0.3,8,0.2,12,0c2.6-0.2,3.3,0.7,3.2,3.3c-0.2,7.7,0,15.5-0.1,23.2c0,2.1,0.5,2.9,2.7,2.8
		c6.6-0.1,13.3-0.2,19.9,0c2.4,0.1,3-0.7,2.9-3c-0.1-7.6,0.1-15.2-0.1-22.8c-0.1-2.7,0.6-3.7,3.4-3.5c4.1,0.3,8.3,0.3,12.4,0
		c2.9-0.2,3.7,0.9,3.3,3.5c0,0.3,0,0.5,0,0.8C276,458.7,276,524.1,276.1,589.4z"/>
	<path d="M784.6,589.6c0,3.5-0.9,4.5-4.4,4.3c-3.6-0.3-7.2-0.4-10.7,0c-3.7,0.4-4.2-1.1-4.2-4.4c0.2-13.4,0.1-26.8,0.1-40.2
		c0-46.1,0-92.2,0.1-138.4c0-3.3-0.6-4.6-4.2-4.4c-5.9,0.3-11.9,0.2-17.8,0c-2.8-0.1-3.7,0.6-3.7,3.6c0.2,14,0.1,27.9,0.1,41.8
		c0,45.9,0,91.7,0.1,137.6c0,3.4-0.7,4.6-4.2,4.3c-4.1-0.3-8.3-0.2-12.4,0c-2,0.1-2.8-0.6-2.5-2.5c0.1-0.7,0-1.4,0-2.1
		c0-65,0.1-130.1-0.1-195.1c0-4.4,1.3-5,5.2-5c18.2,0.2,36.5,0.2,54.7,0c3.4,0,4.1,1,4.1,4.2c-0.1,32.7-0.1,65.5-0.1,98.2
		C784.5,524.1,784.5,556.8,784.6,589.6z"/>
	<path d="M862.6,593.1c-2.5,2.3-8.7,0.7-13.2,0.7c-15.2,0-30.4-0.1-45.6,0.1c-3.6,0-4.2-1.1-4.2-4.4c0.1-32.7,0.1-65.5,0.1-98.2
		c0-32.6,0.1-65.2-0.1-97.8c0-3.8,1.1-4.5,4.6-4.5c18.5,0.2,37,0.2,55.5,0c3.1,0,4.2,0.7,3.8,3.8c-0.5,4.5,1.9,10.5-0.9,13.1
		c-2.5,2.2-8.4,0.6-12.8,0.6c-9.2,0-18.5,0.1-27.8,0c-2.4,0-3.3,0.5-3.3,3.2c0,8.6-0.1,8.6,8.6,8.6c10.9,0,21.8,0.1,32.7,0
		c2.6,0,3.5,0.5,3.5,3.4c-0.1,8.6,0.1,8.6-8.6,8.6c-10.9,0-21.8,0.1-32.7,0c-2.6,0-3.5,0.5-3.5,3.4c0.1,46.4,0.1,92.8,0,139.2
		c0,3,0.8,3.7,3.7,3.6c12.6-0.2,25.1,0,37.7-0.1c2.6,0,3.7,0.6,3.4,3.4C863.1,584.2,865.5,590.4,862.6,593.1z"/>
	<path d="M310.5,410.2c0.1,8.1,0,8.1,8.2,8.1c11,0,22.1,0.1,33.1,0c2.6,0,3.6,0.5,3.6,3.4c-0.1,8.6,0.1,8.6-8.6,8.6
		c-10.9,0-21.8,0.1-32.7,0c-2.5,0-3.5,0.4-3.5,3.3c0.1,46.5,0.1,93.1,0,139.6c0,2.9,1,3.3,3.6,3.3c12.6-0.1,25.1,0.1,37.7-0.1
		c2.9,0,3.8,0.7,3.6,3.7c-0.3,3.6-0.3,7.2,0,10.8c0.2,2.6-0.8,3.2-3.3,3.2c-19-0.1-38.1-0.1-57.1,0c-3.1,0-3.5-1-3.5-3.8
		c0.1-32.9,0-65.7,0-98.6c0-32.7,0.1-65.4-0.1-98.2c0-3.4,0.8-4.3,4.3-4.3c18.5,0.2,37,0.2,55.5,0c3.6,0,4.5,1.1,4.2,4.4
		c-0.3,3-0.2,6.1,0,9.1c0.3,3.1-0.5,4.2-4,4.1c-12.4-0.2-24.8,0-37.3-0.2C311.1,406.5,310.4,407.4,310.5,410.2z"/>
	<path d="M548.4,579.8c-0.3,3.8-0.1,7.7,0,11.6c0.1,1.8-0.5,2.4-2.3,2.4c-19.7-0.1-39.5-0.1-59.3,0c-2.8,0-2.2-1.8-2.2-3.3v-99
		c0-32.7,0.1-65.5-0.1-98.2c0-3.5,0.9-4.3,4.3-4.2c18.7,0.2,37.3,0.2,56,0c2.9,0,3.9,0.7,3.7,3.7c-0.3,3.6-0.3,7.2,0,10.8
		c0.2,2.7-0.8,3.2-3.3,3.2c-12.7-0.1-25.4,0-38.1-0.1c-2.7,0-3.5,0.6-3.5,3.4c0.1,8.4-0.1,8.4,8.3,8.4c10.9,0,21.8,0.1,32.7-0.1
		c2.8,0,3.8,0.5,3.8,3.6c-0.1,8.4,0,8.4-8.4,8.4c-10.9,0-21.8,0.1-32.7-0.1c-2.8,0-3.7,0.5-3.7,3.5c0.1,46.4,0.1,92.8,0,139.2
		c0,2.7,0.7,3.5,3.4,3.4c12.6-0.1,25.1,0,37.7-0.1C547.5,576.2,548.7,576.8,548.4,579.8z"/>
	<path d="M469.2,580.3c-0.3,3.6-0.2,7.2,0,10.8c0.1,2.3-0.7,2.7-2.8,2.7c-19.3-0.1-38.7-0.1-58,0c-2.5,0-2.8-0.9-3-3.1
		c-1.4-13.9,3.4-26.7,6.7-39.7c12.3-47,24.6-93.9,37.1-140.8c0.8-3.1,0.7-3.9-2.8-3.9c-12.4,0.2-24.9,0-37.3,0.1
		c-2.9,0-3.9-0.7-3.7-3.6c0.3-3.7,0.1-7.5,0-11.2c-0.1-2,0.6-2.6,2.6-2.6c19.5,0.1,39,0.1,58.4,0c2.7,0,2.5,1.3,2.7,3.3
		c1.5,13.6-3,26.1-6.4,38.9c-12.4,47.4-25,94.7-37.4,142c-0.2,0.9-0.3,1.9-0.5,3.1c13.6,0,27,0.1,40.3-0.1
		C468.5,576.2,469.4,577.1,469.2,580.3z"/>
	<path d="M197.7,392.7c-0.3,3.7-0.2,7.5,0,11.2c0.1,2.2-0.7,2.8-2.8,2.8c-5.1-0.1-10.2,0.2-15.3-0.1c-3.5-0.2-4.3,0.8-4.3,4.3
		c0.1,42.4,0.1,84.8,0.1,127.2c0,17.3-0.1,34.5,0.1,51.8c0,3.4-1.1,4.2-4.2,4c-3.6-0.3-7.2-0.3-10.8,0c-3.4,0.3-4.4-0.7-4.3-4.2
		c0.2-25.5,0.1-51.1,0.1-76.7v-12.8c0-29.8-0.1-59.7,0.1-89.5c0-3.3-0.9-4.2-4.1-4.1c-5.2,0.3-10.5,0-15.7,0.1
		c-1.9,0-2.9-0.5-2.6-2.5c0-0.1,0-0.3,0-0.4c0.3-4.8-2-11,0.9-13.9c2.4-2.3,8.6-0.7,13.2-0.7c15.3,0,30.7,0.1,46-0.1
		C196.8,389,197.9,389.7,197.7,392.7z"/>
</g>
</svg>
